<svg version="1.0" xmlns="http://www.w3.org/2000/svg" width="600.000000pt" height="600.000000pt" viewBox="0 0 600.000000 600.000000" preserveAspectRatio="xMidYMid meet" style="width: 570.123px; height: auto;"> <g transform="translate(0.000000,600.000000) scale(0.100000,-0.100000)" fill="#000000" stroke="none" class="">   <path d="M2825 4890 c-274 -58 -447 -164 -525 -322 -18 -38 -36 -68 -40 -68 -16 0 -100 -83 -123 -123 -38 -65 -60 -185 -53 -287 11 -141 36 -316 51 -361 9 -23 14 -43 13 -43 -32 -11 -67 -38 -85 -64 -84 -126 -17 -335 143 -441 52 -34 118 -49 139 -31 17 14 14 20 39 -78 19 -73 56 -151 96 -202 21 -27 27 -44 25 -75 -1 -22 -3 -52 -4 -66 -1 -22 -9 -29 -48 -44 -71 -26 -91 -41 -114 -88 -12 -23 -48 -85 -81 -138 -56 -91 -62 -97 -116 -119 -178 -72 -685 -337 -807 -420 -99 -68 -201 -205 -284 -381 -69 -147 -68 -141 -24 -191 234 -268 464 -455 751 -611 426 -232 936 -339 1430 -300 86 6 110 26 34 28 -22 1 -39 -2 -36 -6 2 -4 -98 -5 -223 -3 -267 6 -273 6 -265 18 3 5 -2 6 -12 3 -19 -8 -281 30 -308 44 -10 5 -25 9 -34 9 -8 0 -25 5 -37 12 -12 6 -29 12 -37 13 -19 2 -80 22 -142 46 -26 11 -55 19 -65 19 -11 0 -23 4 -29 8 -12 11 -116 53 -140 56 -17 3 -20 17 -25 172 -4 121 -11 179 -22 204 -15 33 -15 23 -10 -157 4 -136 3 -193 -5 -193 -6 0 -14 9 -17 21 -4 11 -9 18 -12 15 -6 -6 -109 48 -137 72 -15 13 -18 13 -12 2 4 -8 0 -6 -9 5 -9 11 -19 20 -23 19 -12 -1 -31 23 -24 30 3 4 -2 4 -12 0 -14 -5 -17 -4 -12 5 4 6 4 11 -1 10 -17 -4 -64 21 -58 31 4 6 1 9 -6 8 -6 -2 -14 3 -17 11 -3 9 0 11 8 6 9 -6 11 -4 5 4 -5 9 -10 10 -18 2 -15 -15 -30 -14 -21 2 4 6 4 9 0 5 -8 -6 -30 9 -72 48 -13 12 -25 19 -28 16 -3 -3 -6 0 -6 6 0 6 -9 14 -20 17 -11 4 -18 10 -15 15 3 4 -5 10 -17 13 -18 5 -19 8 -8 22 11 13 10 15 -2 10 -13 -5 -72 39 -66 49 2 2 0 8 -5 12 -4 4 -7 2 -7 -5 0 -9 -4 -9 -14 1 -10 9 -11 15 -2 20 7 5 7 8 -3 8 -8 0 -20 8 -28 18 -8 9 -11 11 -7 3 5 -10 3 -12 -5 -7 -7 5 -10 14 -7 22 3 9 0 11 -11 7 -13 -5 -15 -2 -9 12 4 11 4 17 1 13 -8 -8 -55 36 -55 51 0 7 -4 9 -10 6 -9 -5 -15 16 -11 38 1 5 -3 6 -9 2 -6 -3 -7 -12 -3 -18 4 -7 0 -6 -10 2 -9 7 -17 18 -17 23 0 25 113 255 164 332 90 138 131 169 466 348 361 194 539 277 544 255 22 -85 57 -163 131 -292 114 -199 272 -405 309 -405 14 1 54 37 116 107 144 160 188 185 261 147 44 -22 50 -8 11 27 -45 40 -105 42 -157 6 -46 -33 -49 -36 -144 -139 l-89 -96 -64 81 c-115 145 -220 313 -308 487 l-48 95 36 55 c19 30 58 96 86 145 44 77 57 93 96 112 58 28 61 28 50 -3 -6 -14 -10 -43 -10 -65 0 -47 -14 -50 -31 -6 l-13 32 -3 -27 c-5 -32 35 -115 85 -178 81 -102 153 -165 496 -435 46 -36 60 -58 142 -222 l92 -183 -11 -83 c-8 -66 -5 -138 11 -348 12 -145 27 -353 34 -463 l12 -198 61 6 c101 12 315 63 461 111 146 48 415 174 526 246 202 133 348 249 348 276 0 26 -108 370 -141 449 -16 39 -45 95 -64 125 -19 30 -40 65 -47 79 -7 14 -18 31 -25 38 -7 7 -13 17 -13 22 0 15 -134 108 -248 172 -60 35 -196 106 -300 158 -162 81 -192 99 -201 124 -6 16 -10 31 -8 32 3 4 451 -225 532 -271 108 -61 201 -119 223 -139 40 -35 143 -196 177 -277 36 -84 155 -440 155 -464 0 -20 10 -19 35 5 l22 21 -67 202 c-81 246 -118 326 -205 450 -95 135 -180 191 -639 418 -255 127 -259 129 -294 181 -20 29 -59 76 -87 105 l-52 51 48 32 c54 35 141 129 206 222 82 118 128 280 136 474 3 80 8 108 24 135 23 37 43 128 43 195 0 24 5 46 10 49 14 9 12 81 -2 93 -7 6 -30 13 -52 17 l-39 8 7 91 c17 255 18 321 3 369 -13 39 -13 60 -5 107 14 71 1 141 -40 217 -35 67 -206 258 -248 278 -17 8 -55 15 -82 15 -28 0 -110 9 -184 20 -168 25 -332 25 -453 0z m298 -15 c40 -3 97 -10 127 -16 30 -5 91 -12 135 -15 44 -3 95 -7 113 -9 34 -2 61 -26 179 -151 65 -69 108 -138 97 -156 -4 -7 -3 -8 4 -4 7 4 13 -7 17 -31 3 -21 8 -46 10 -56 3 -18 -11 -134 -21 -172 -4 -16 -3 -17 5 -5 6 8 11 11 12 5 0 -5 3 -19 6 -30 16 -63 14 -249 -2 -233 -3 3 -14 40 -25 84 -11 43 -23 86 -27 94 -3 8 -7 18 -7 22 -1 3 -4 10 -8 14 -5 4 -8 16 -8 26 0 10 -4 18 -10 18 -5 0 -10 8 -10 18 0 10 -13 36 -30 59 -16 22 -27 43 -23 47 3 3 -1 6 -10 6 -10 0 -17 4 -17 8 0 10 -50 37 -62 34 -5 -1 -8 2 -8 8 0 5 -7 6 -17 3 -10 -4 -14 -2 -10 4 10 16 -131 8 -220 -14 -64 -15 -94 -15 -236 -7 -89 6 -189 9 -222 8 -103 -4 -237 -23 -253 -37 -8 -6 -17 -10 -18 -7 -7 10 -66 -46 -78 -75 -14 -33 -15 -129 -1 -236 7 -61 6 -69 -14 -90 -11 -12 -21 -27 -21 -32 0 -4 -7 -15 -15 -24 -8 -8 -13 -19 -10 -24 4 -5 2 -9 -3 -9 -14 0 -52 -117 -52 -159 0 -20 4 -43 10 -51 11 -18 87 -21 94 -4 3 7 14 10 25 7 13 -3 21 -1 21 6 0 7 5 9 10 6 6 -3 10 -1 10 5 0 6 4 9 9 6 14 -9 42 5 34 17 -3 6 -1 7 5 3 6 -4 21 -2 32 4 11 6 20 7 20 2 0 -5 -11 -15 -25 -22 -20 -11 -25 -20 -21 -42 5 -30 -5 -36 -26 -15 -7 8 -22 12 -33 11 -11 -2 -35 -5 -52 -6 -18 -2 -33 -6 -33 -10 0 -4 -9 -5 -19 -3 -11 2 -29 -7 -41 -20 -18 -19 -21 -33 -19 -68 2 -25 1 -43 -3 -41 -3 2 -9 -2 -11 -8 -3 -8 -6 -6 -6 4 -1 24 -89 110 -133 131 -23 11 -48 15 -65 11 -20 -4 -24 -3 -14 4 12 9 11 26 -7 119 -31 162 -34 185 -36 311 -2 75 3 137 12 172 16 62 61 152 73 145 4 -3 11 4 14 16 4 11 9 18 12 15 3 -2 10 0 17 5 6 5 20 17 32 27 12 9 36 47 54 85 32 67 116 157 147 157 8 0 12 4 9 8 -2 4 4 14 16 21 11 7 18 9 15 4 -3 -5 25 6 62 24 77 38 265 92 326 94 22 0 51 4 65 8 26 7 38 7 153 -4z m448 -472 c43 -22 61 -39 87 -83 62 -105 115 -283 127 -433 l8 -89 -89 7 c-149 11 -307 -17 -352 -62 -22 -22 -36 -26 -86 -27 -51 -1 -63 3 -89 26 -45 43 -95 52 -277 53 -170 0 -241 -10 -315 -44 -22 -11 -68 -28 -102 -39 l-63 -19 0 53 c0 54 -1 51 105 250 21 40 22 45 9 110 -34 174 -8 247 97 272 110 27 223 33 429 21 194 -11 209 -10 285 9 113 29 160 28 226 -5z m236 -435 c-3 -8 -6 -5 -6 6 -1 11 2 17 5 13 3 -3 4 -12 1 -19z m-3 -190 c-5 -8 -2 -9 9 -5 10 3 18 2 18 -3 3 -19 5 -25 18 -49 16 -29 12 -261 -5 -254 -7 2 -11 52 -13 134 -2 124 -3 132 -26 153 -23 21 -24 36 -3 36 5 0 6 -5 2 -12z m-54 -24 l35 -6 0 -166 0 -167 -55 -8 c-83 -13 -234 -3 -264 17 -36 23 -64 83 -78 163 -19 116 1 146 108 162 71 10 206 13 254 5z m145 -26 c11 -24 12 -28 2 -16 -8 10 -17 15 -20 11 -4 -3 -7 3 -7 15 0 30 7 27 25 -10z m-783 0 c25 -11 39 -25 44 -43 9 -34 -22 -191 -44 -230 -29 -50 -92 -66 -248 -62 -182 4 -194 13 -216 168 -14 100 -5 146 30 161 52 21 108 27 252 24 108 -2 155 -6 182 -18z m153 -40 c29 0 58 2 63 6 15 9 24 -11 17 -35 -6 -19 -8 -19 -19 -3 -18 24 -63 25 -108 2 l-38 -18 0 23 c0 27 9 39 22 30 6 -3 34 -5 63 -5z m-668 -124 c16 -112 45 -173 98 -199 34 -17 60 -20 180 -20 165 1 211 12 254 60 30 35 71 145 71 192 0 41 88 64 126 32 6 -5 17 -35 23 -67 14 -69 56 -148 94 -176 26 -19 42 -21 190 -21 l162 0 -8 -100 c-14 -179 -49 -289 -129 -412 -73 -112 -166 -205 -238 -237 -115 -52 -282 -51 -458 1 -48 14 -95 28 -104 30 -10 3 -18 1 -18 -5 0 -28 176 -128 285 -162 80 -25 227 -32 247 -12 7 7 14 12 18 12 3 0 3 -45 2 -100 -2 -56 1 -114 7 -131 14 -40 -2 -116 -31 -146 -49 -52 -193 -82 -322 -68 -67 7 -69 8 -194 108 -123 97 -285 251 -315 299 -13 20 -14 32 -2 93 8 39 17 107 20 153 6 71 5 85 -10 102 -10 11 -15 20 -11 20 4 0 2 10 -5 21 -11 21 -11 21 14 3 16 -12 22 -23 16 -30 -5 -7 0 -19 14 -32 25 -24 96 -56 105 -48 3 4 -26 39 -64 79 -110 114 -159 200 -195 345 -16 63 -32 81 -60 64 -49 -31 -117 -4 -188 74 -104 114 -121 266 -36 332 35 28 57 28 113 0 34 -16 54 -36 84 -85 22 -34 46 -63 54 -63 21 0 34 34 34 94 l0 55 58 11 c31 6 62 13 67 15 36 13 41 5 52 -81z m1253 -119 c0 -1 -9 -5 -19 -8 -13 -3 -18 -1 -14 9 4 10 33 10 33 -1z m-33 -51 c-3 -3 -12 -4 -19 -1 -8 3 -5 6 6 6 11 1 17 -2 13 -5z m-1287 -730 c0 -12 -2 -12 -14 -2 -8 7 -12 16 -9 21 7 11 23 -2 23 -19z m513 -100 c122 -21 253 -29 261 -15 4 6 21 11 37 11 16 0 46 7 65 15 27 11 35 12 31 2 -2 -6 -1 -21 3 -32 5 -14 0 -25 -17 -38 -19 -15 -40 -18 -121 -18 -53 1 -113 5 -132 10 -71 19 -115 33 -126 42 -6 5 -15 5 -19 1 -5 -4 -5 -1 -1 6 5 8 1 12 -11 12 -11 0 -28 7 -39 15 -18 14 -17 14 9 5 15 -5 42 -12 60 -16z m-547 -71 c-8 -15 -15 -22 -16 -15 0 14 22 53 28 47 2 -2 -3 -16 -12 -32z m1056 -116 c32 -50 86 -200 143 -396 18 -64 36 -125 41 -136 l7 -20 -24 20 c-13 11 -26 23 -29 26 -3 4 -28 18 -57 33 -99 50 -160 29 -232 -81 -49 -73 -36 -82 24 -16 30 33 68 66 84 73 26 11 36 9 83 -14 29 -14 82 -46 117 -71 35 -25 69 -44 75 -42 6 2 10 19 8 38 -3 36 -48 204 -88 328 -30 93 -30 97 5 69 15 -13 27 -25 26 -28 -2 -3 10 -6 26 -7 36 -3 92 -40 83 -55 -5 -7 2 -9 20 -4 18 4 25 3 21 -4 -4 -6 4 -10 19 -10 20 0 24 -4 21 -20 -3 -16 -1 -19 13 -11 18 10 51 0 82 -26 11 -10 24 -18 28 -18 15 0 72 -28 72 -35 0 -4 11 -11 25 -14 14 -4 23 -11 20 -16 -3 -5 0 -12 6 -16 8 -4 9 -3 5 4 -11 18 2 14 34 -8 15 -11 31 -16 35 -12 5 4 5 1 1 -5 -4 -7 -2 -13 3 -13 6 0 11 -5 11 -11 0 -5 -5 -7 -12 -3 -7 4 -8 3 -4 -4 5 -9 13 -9 29 0 19 10 21 9 9 -4 -10 -13 -10 -18 -1 -24 7 -4 9 -3 5 4 -4 6 1 10 13 9 11 0 18 -4 16 -7 -1 -3 3 -11 11 -18 9 -8 14 -9 14 -2 0 6 5 8 11 5 6 -4 8 -13 5 -21 -3 -8 0 -11 8 -8 15 6 30 -22 20 -37 -3 -5 -2 -9 3 -8 38 7 44 -18 34 -136 -9 -99 3 -142 14 -49 3 33 9 77 12 98 l5 39 16 -34 c8 -19 14 -37 14 -41 -1 -5 3 -8 10 -8 6 0 8 -3 5 -7 -4 -3 -1 -13 6 -21 9 -13 9 -14 0 -8 -9 5 -11 2 -7 -8 3 -9 10 -13 15 -10 5 3 9 1 9 -5 0 -6 12 -36 27 -67 15 -32 27 -72 27 -91 0 -18 3 -28 7 -22 5 9 31 -64 34 -96 1 -5 4 -17 8 -25 3 -8 18 -51 31 -94 23 -75 24 -80 7 -95 -9 -9 -12 -14 -6 -11 6 3 2 -3 -10 -13 -11 -9 -31 -28 -45 -41 -39 -37 -101 -76 -111 -70 -5 3 -8 2 -7 -3 2 -5 -9 -21 -23 -36 l-26 -28 -7 162 c-8 187 -15 249 -28 249 -6 0 -9 -84 -7 -217 3 -200 1 -218 -14 -217 -9 1 -17 -2 -17 -8 0 -5 -4 -6 -10 -3 -5 3 -10 2 -10 -4 0 -13 -68 -54 -79 -47 -5 4 -13 1 -17 -5 -4 -8 -3 -9 4 -5 7 4 12 4 12 1 0 -3 -30 -20 -67 -38 -38 -18 -75 -37 -83 -42 -8 -5 -17 -10 -20 -10 -3 -1 -20 -9 -38 -18 -18 -10 -38 -15 -44 -11 -7 4 -8 3 -4 -4 4 -7 1 -12 -6 -12 -8 0 -32 -9 -53 -21 -22 -11 -56 -21 -76 -22 -21 -1 -35 -5 -33 -8 7 -13 -131 -53 -147 -43 -5 3 -9 1 -9 -4 0 -5 -9 -12 -20 -15 -11 -3 -20 -1 -20 5 0 5 -7 2 -16 -6 -8 -9 -19 -14 -24 -11 -4 3 -26 -2 -49 -10 -25 -9 -41 -10 -41 -4 0 6 -7 3 -16 -6 -9 -9 -23 -14 -30 -11 -7 3 -16 1 -18 -3 -3 -5 -20 -8 -38 -7 -18 1 -39 -4 -47 -12 -7 -7 -15 -11 -18 -8 -2 2 -13 143 -23 313 -11 169 -24 369 -31 443 -19 231 4 411 91 700 61 203 65 227 63 373 -1 75 0 137 1 137 5 0 76 -109 76 -116 0 -3 7 -12 15 -20 11 -12 12 -20 4 -36 -6 -11 -8 -22 -5 -26 3 -3 6 0 6 6 0 7 5 12 10 12 6 0 10 -7 10 -15 0 -8 12 -48 26 -90 14 -41 22 -80 18 -86 -4 -7 -3 -9 3 -6 11 7 23 -23 23 -61 0 -26 39 -107 47 -99 10 11 -99 363 -129 417 -16 30 -48 76 -69 102 -26 31 -39 56 -39 75 l1 28 40 -45 c22 -25 54 -67 71 -93z m-1337 -36 c3 -5 2 -12 -3 -15 -5 -3 -9 1 -9 9 0 17 3 19 12 6z m1424 -32 c-15 -9 -32 -2 -24 11 3 5 13 6 21 3 12 -4 13 -8 3 -14z m-1564 -39 c-3 -5 -12 -10 -18 -10 -7 0 -6 4 3 10 19 12 23 12 15 0z m-38 -16 c-3 -3 -12 -4 -19 -1 -8 3 -5 6 6 6 11 1 17 -2 13 -5z m-277 -128 c0 -2 -8 -10 -17 -17 -16 -13 -17 -12 -4 4 13 16 21 21 21 13z m1640 -46 c0 -5 -5 -10 -11 -10 -5 0 -7 5 -4 10 3 6 8 10 11 10 2 0 4 -4 4 -10z m-43 -90 c-24 -68 -34 -75 -147 -90 -67 -10 -76 -9 -88 7 -7 10 -28 34 -47 54 l-34 37 62 -5 c73 -6 166 9 216 36 57 30 60 26 38 -39z m-1762 40 c-3 -5 -12 -10 -18 -10 -7 0 -6 4 3 10 19 12 23 12 15 0z m1432 -36 c-7 -7 -37 7 -37 17 0 6 9 5 21 -1 11 -7 19 -14 16 -16z m-1497 2 c0 -2 -8 -10 -17 -17 -16 -13 -17 -12 -4 4 13 16 21 21 21 13z m1796 -113 c-21 -70 -56 -223 -56 -248 0 -34 -11 -25 -30 25 -8 19 -33 74 -56 123 l-43 87 42 1 c23 0 62 6 87 13 62 18 62 18 56 -1z m-1997 -16 c-2 -1 -13 -9 -24 -17 -19 -14 -19 -14 -6 3 7 9 18 17 24 17 6 0 8 -1 6 -3z m1531 -41 c0 -2 -7 -7 -16 -10 -8 -3 -12 -2 -9 4 6 10 25 14 25 6z m900 -17 c0 -11 -4 -18 -10 -14 -5 3 -7 12 -3 20 7 21 13 19 13 -6z m-487 -224 c-3 -9 -8 -14 -10 -11 -3 3 -2 9 2 15 9 16 15 13 8 -4z m-2172 -22 c-12 -20 -14 -14 -5 12 4 9 9 14 11 11 3 -2 0 -13 -6 -23z" class=""></path>  <path d="M2806 3923 c-42 -12 -154 -98 -143 -110 2 -2 33 3 68 12 76 18 222 20 285 4 38 -10 48 -9 61 3 22 23 3 52 -49 73 -43 18 -184 29 -222 18z m197 -35 c9 -1 17 -6 17 -10 0 -4 6 -8 14 -8 8 0 18 -5 22 -11 4 -8 -3 -9 -27 -3 -19 4 -42 7 -52 6 -9 0 -16 2 -13 6 5 8 -121 6 -144 -2 -20 -7 -71 -3 -62 6 24 23 118 29 245 16z" class=""></path> <path d="M3497 3919 c-71 -17 -112 -59 -84 -87 11 -10 23 -11 53 -3 77 20 158 23 227 8 37 -7 70 -11 72 -7 9 14 -35 58 -78 79 -46 22 -121 26 -190 10z m171 -27 c13 -4 22 -11 20 -17 -2 -5 -7 -8 -13 -6 -19 9 -156 10 -150 2 3 -5 -5 -8 -18 -8 -12 1 -32 -2 -44 -7 -18 -6 -22 -4 -17 8 10 25 163 44 222 28z" class=""></path>      <path d="M3524 3679 c-34 -10 -90 -56 -80 -66 3 -3 14 1 24 10 25 23 32 21 32 -8 0 -26 25 -45 59 -45 27 0 55 43 46 71 -7 22 -7 22 39 -4 33 -18 46 -22 46 -12 0 38 -105 73 -166 54z m49 -26 c8 -14 -12 -53 -28 -53 -9 0 -19 10 -24 23 -7 18 -4 23 13 29 30 9 34 9 39 1z"></path>   <path d="M2805 3657 c-22 -12 -41 -30 -43 -40 -3 -16 -1 -16 30 3 43 26 46 25 50 -7 2 -17 13 -33 29 -42 24 -13 29 -13 53 2 18 12 26 26 26 47 0 17 2 30 5 30 8 0 59 -33 66 -43 4 -5 9 -5 12 0 3 4 0 15 -6 24 -38 52 -153 65 -222 26z m115 -17 c13 -20 13 -33 0 -25 -5 3 -10 -1 -10 -9 0 -20 -11 -20 -36 0 -14 11 -16 17 -6 21 9 3 10 9 3 17 -7 9 -3 12 15 11 14 0 29 -7 34 -15z" class=""></path>   <path d="M3312 3545 c4 -52 14 -87 38 -136 39 -78 36 -110 -12 -139 -24 -14 -42 -17 -80 -13 -66 8 -62 -10 6 -27 63 -15 99 -8 132 25 35 35 33 94 -7 158 -17 27 -38 81 -48 118 -24 93 -35 98 -29 14z" class=""></path> <path d="M2142 3548 c-20 -20 -14 -27 21 -22 18 3 39 -1 49 -9 16 -13 16 -16 -4 -55 -15 -32 -18 -52 -13 -79 7 -41 67 -109 86 -97 8 5 6 10 -7 17 -11 6 -24 18 -31 26 -17 21 -16 90 1 121 l14 25 19 -34 c10 -18 26 -43 35 -55 l17 -21 1 23 c0 31 -26 92 -53 120 -44 47 -109 66 -135 40z"></path>  <path d="M2140 3436 c0 -2 8 -10 18 -17 15 -13 16 -12 3 4 -13 16 -21 21 -21 13z"></path>  <path d="M3134 3315 c-10 -24 5 -65 22 -65 13 0 14 3 4 15 -7 8 -10 25 -6 40 7 27 -11 36 -20 10z"></path> <path d="M2995 3080 c-11 -18 5 -29 68 -48 122 -38 300 -36 394 3 58 25 29 39 -42 20 -101 -26 -308 -15 -379 21 -35 17 -33 17 -41 4z" class=""></path>   <path d="M3240 2911 c-59 -6 -58 -15 2 -26 38 -7 108 9 108 26 0 9 -20 9 -110 0z" class=""></path>        <path d="M3765 2130 c-3 -6 1 -7 9 -4 18 7 21 14 7 14 -6 0 -13 -4 -16 -10z"></path> <path d="M4090 1940 c-9 -6 -10 -10 -3 -10 6 0 15 5 18 10 8 12 4 12 -15 0z"></path> <path d="M4494 1542 c0 -10 6 -19 13 -19 8 0 9 6 2 19 -5 10 -11 18 -12 18 -2 0 -3 -8 -3 -18z"></path> <path d="M3322 1438 c-7 -7 -12 -21 -12 -33 0 -47 62 -63 81 -21 22 47 -33 90 -69 54z m48 -33 c0 -15 -6 -25 -14 -25 -16 0 -25 19 -18 38 8 22 32 13 32 -13z"></path> <path d="M4566 1358 c3 -5 10 -6 15 -3 13 9 11 12 -6 12 -8 0 -12 -4 -9 -9z"></path> <path d="M3362 1018 c-19 -19 -15 -66 7 -78 29 -15 39 -13 57 15 15 23 15 27 0 50 -18 27 -45 32 -64 13z m46 -36 c2 -14 -2 -22 -12 -22 -19 0 -29 17 -22 36 8 22 30 12 34 -14z" class=""></path> <path d="M3390 589 c-27 -49 21 -99 61 -63 23 21 24 47 3 68 -22 22 -51 20 -64 -5z m50 -24 c0 -15 -6 -25 -14 -25 -16 0 -25 19 -18 38 8 22 32 13 32 -13z"></path> <path d="M3580 546 c0 -2 7 -7 16 -10 8 -3 12 -2 9 4 -6 10 -25 14 -25 6z"></path>    <path d="M2460 2421 c0 -6 4 -13 10 -16 6 -3 7 1 4 9 -7 18 -14 21 -14 7z"></path> <path d="M2486 2328 c3 -5 10 -6 15 -3 13 9 11 12 -6 12 -8 0 -12 -4 -9 -9z"></path>  <path d="M2260 2030 c0 -5 5 -10 11 -10 5 0 7 5 4 10 -3 6 -8 10 -11 10 -2 0 -4 -4 -4 -10z"></path>  <path d="M2744 1826 c-16 -13 -17 -17 -5 -28 12 -11 13 -11 6 0 -4 8 0 19 11 27 11 8 16 15 13 15 -3 0 -14 -6 -25 -14z"></path> <path d="M1380 1801 c0 -5 21 -22 47 -37 67 -39 200 -175 259 -264 27 -42 63 -107 79 -145 33 -80 33 -80 41 -73 12 12 -60 170 -115 255 -67 101 -153 185 -242 238 -65 38 -69 39 -69 26z"></path> <path d="M1310 1770 c-9 -6 -10 -10 -3 -10 6 0 15 5 18 10 8 12 4 12 -15 0z"></path> <path d="M1524 1623 c2 -10 6 -17 10 -16 15 3 16 11 2 22 -12 10 -14 9 -12 -6z"></path> <path d="M1410 1016 c0 -2 7 -7 16 -10 8 -3 12 -2 9 4 -6 10 -25 14 -25 6z"></path>    </g> </svg>